<?xml version="1.0" encoding="utf-8"?>
<svg width="128" height="128" viewBox="0 0 128 128" fill="none" xmlns="http://www.w3.org/2000/svg">
  <g id="notesdb">
    <rect id="Rectangle" width="128" height="128" fill="#18181B" fill-rule="evenodd" />
    <path id="Path" d="M63.36 0L99.44 0L99.44 18.04L93.94 18.04L93.94 85.58L63.03 85.58L30.8 35.97L30.8 67.54L36.08 67.54L36.08 85.58L0 85.58L0 67.54L5.5 67.54L5.5 18.04L0 18.04L0 0L39.71 0L68.64 44.11L68.64 18.04L63.36 18.04L63.36 0Z" fill="#6366F1" fill-rule="evenodd" transform="translate(14.28 21.21)" />
    <path id="Path" d="M5.67188 16L0 16L0 0L5.71875 0C7.32813 0 8.71484 0.319008 9.87891 0.957031C11.043 1.59505 11.9375 2.51041 12.5625 3.70313C13.1875 4.89584 13.5 6.32291 13.5 7.98438C13.5 9.65104 13.1862 11.0833 12.5586 12.2813C11.931 13.4792 11.0326 14.3984 9.86328 15.0391C8.69401 15.6797 7.29688 16 5.67188 16L5.67188 16ZM3.38281 13.1016L5.53125 13.1016C7.03646 13.1016 8.17838 12.6953 8.95703 11.8828C9.73568 11.0703 10.125 9.77084 10.125 7.98438C10.125 6.20834 9.73568 4.91666 8.95703 4.10938C8.17838 3.30209 7.03906 2.89844 5.53906 2.89844L3.38281 2.89844L3.38281 13.1016ZM16 16L16 0L22.4063 0C24.1719 0 25.4987 0.384117 26.3867 1.15234C27.2747 1.92057 27.7188 2.90365 27.7188 4.10156C27.7188 5.04427 27.4453 5.80599 26.8984 6.38672C26.3516 6.96745 25.6615 7.35156 24.8281 7.53906L24.8281 7.69531C25.4375 7.72135 26.0091 7.89323 26.543 8.21094C27.0768 8.52865 27.5104 8.97135 27.8438 9.53906C28.1771 10.1068 28.3438 10.7865 28.3438 11.5781C28.3438 12.4271 28.1341 13.1849 27.7148 13.8516C27.2956 14.5182 26.6771 15.043 25.8594 15.4258C25.0417 15.8086 24.0339 16 22.8359 16L16 16ZM19.3828 13.2344L22.1406 13.2344C23.0885 13.2344 23.7773 13.0521 24.207 12.6875C24.6367 12.3229 24.8516 11.8411 24.8516 11.2422C24.8516 10.5807 24.6159 10.0391 24.1445 9.61719C23.6732 9.19531 23.0313 8.98438 22.2188 8.98438L19.3828 8.98438L19.3828 13.2344ZM19.3828 6.69531L21.8906 6.69531C22.5833 6.69531 23.1589 6.51432 23.6172 6.15234C24.0755 5.79037 24.3047 5.29427 24.3047 4.66406C24.3047 4.08594 24.1003 3.61979 23.6914 3.26563C23.2826 2.91146 22.7031 2.73438 21.9531 2.73438L19.3828 2.73438L19.3828 6.69531Z" fill="#FFFFFF" transform="translate(77.391 86.313)" />
  </g>
</svg>